# Aspose.3D Wavefront OBJ Exporter
# Copyright 2004-2022 Aspose Pty Ltd.
# File created: 03/13/2022 10:02:55


#
# object PENTACHORESTL
#

v 70.71067811865475504 -2.116540930146172E-14 -2.993240888730488E-14
v 8.6602540378443784 -4.99999999999999904 -2.6657495655335595E-15
v 0 0 0
v 8.6602540378443784 -4.99999999999999904 -2.6657495655335595E-15
v 70.71067811865475504 -2.116540930146172E-14 -2.993240888730488E-14
v 62.05042408081033045 -5.00000000000000532 -1.438623525862326E-14
v 8.6602540378443784 -4.99999999999999904 -2.6657495655335595E-15
v 35.35533905932730648 -61.23724356957940528 1.3747336602421E-14
v 0 0 0
v 35.35533905932730648 -61.23724356957940528 1.3747336602421E-14
v 8.6602540378443784 -4.99999999999999904 -2.6657495655335595E-15
v 35.3553390593273278 -51.2372435695794124 -1.3394840792102513E-14
v 35.35533905932730648 -61.23724356957940528 1.3747336602421E-14
v 35.3553390593273278 -51.2372435695794124 -1.3394840792102513E-14
v 70.71067811865475504 -2.116540930146172E-14 -2.993240888730488E-14
v 70.71067811865475504 -2.116540930146172E-14 -2.993240888730488E-14
v 35.3553390593273278 -51.2372435695794124 -1.3394840792102513E-14
v 62.05042408081033045 -5.00000000000000532 -1.438623525862326E-14
v 0 0 0
v 8.66025403784438376 -1.66666666666667184 4.71404520791030816
v 62.05042408081035887 -1.66666666666669536 4.71404520791028144
v 8.66025403784438376 -1.66666666666667184 4.71404520791030816
v 0 0 0
v 35.35533905932732068 -20.41241452319322744 57.7350269189624896
v 8.66025403784438376 -1.66666666666667184 4.71404520791030816
v 35.35533905932732068 -20.41241452319322744 57.7350269189624896
v 35.35533905932737044 -17.07908118985988466 48.30693650314187692
v 70.71067811865475504 -2.116540930146172E-14 -2.993240888730488E-14
v 62.05042408081035887 -1.66666666666669536 4.71404520791028144
v 35.35533905932732068 -20.41241452319322744 57.7350269189624896
v 62.05042408081035887 -1.66666666666669536 4.71404520791028144
v 70.71067811865475504 -2.116540930146172E-14 -2.993240888730488E-14
v 0 0 0
v 35.35533905932732068 -20.41241452319322744 57.7350269189624896
v 62.05042408081035887 -1.66666666666669536 4.71404520791028144
v 35.35533905932737044 -17.07908118985988466 48.30693650314187692
v 35.3553390593273278 -51.2372435695794124 -1.3394840792102513E-14
v 64.93717542675840096 -6.66666666666664656 4.71404520791031704
v 38.24209040527545512 -52.90391023624614768 4.71404520791028416
v 64.93717542675840096 -6.66666666666664656 4.71404520791031704
v 35.3553390593273278 -51.2372435695794124 -1.3394840792102513E-14
v 62.05042408081033045 -5.00000000000000532 -1.438623525862326E-14
v 8.6602540378443784 -4.99999999999999904 -2.6657495655335595E-15
v 62.05042408081035887 -1.66666666666669536 4.71404520791028144
v 62.05042408081033045 -5.00000000000000532 -1.438623525862326E-14
v 62.05042408081035887 -1.66666666666669536 4.71404520791028144
v 8.6602540378443784 -4.99999999999999904 -2.6657495655335595E-15
v 8.66025403784438376 -1.66666666666667184 4.71404520791030816
v 32.46858771337925728 -22.07908118985986334 48.30693650314186272
v 38.24209040527545512 -52.90391023624614768 4.71404520791028416
v 32.468587713379236 -52.90391023624614064 4.71404520791027256
v 38.24209040527545512 -52.90391023624614768 4.71404520791028416
v 32.46858771337925728 -22.07908118985986334 48.30693650314186272
v 38.24209040527548352 -22.07908118985983847 48.30693650314188404
v 35.35533905932737044 -17.07908118985988466 48.30693650314187692
v 5.77350269189624752 -6.6666666666666652 4.71404520791030904
v 32.46858771337925728 -22.07908118985986334 48.30693650314186272
v 5.77350269189624752 -6.6666666666666652 4.71404520791030904
v 35.35533905932737044 -17.07908118985988466 48.30693650314187692
v 8.66025403784438376 -1.66666666666667184 4.71404520791030816
v 35.35533905932737044 -17.07908118985988466 48.30693650314187692
v 64.93717542675840096 -6.66666666666664656 4.71404520791031704
v 38.24209040527548352 -22.07908118985983847 48.30693650314188404
v 64.93717542675840096 -6.66666666666664656 4.71404520791031704
v 35.35533905932737044 -17.07908118985988466 48.30693650314187692
v 62.05042408081035887 -1.66666666666669536 4.71404520791028144
v 35.35533905932732068 -20.41241452319322744 57.7350269189624896
v 32.468587713379236 -52.90391023624614064 4.71404520791027256
v 35.35533905932730648 -61.23724356957940528 1.3747336602421E-14
v 32.468587713379236 -52.90391023624614064 4.71404520791027256
v 35.35533905932732068 -20.41241452319322744 57.7350269189624896
v 32.46858771337925728 -22.07908118985986334 48.30693650314186272
v 32.46858771337925728 -22.07908118985986334 48.30693650314186272
v 35.35533905932732068 -20.41241452319322744 57.7350269189624896
v 5.77350269189624752 -6.6666666666666652 4.71404520791030904
v 5.77350269189624752 -6.6666666666666652 4.71404520791030904
v 35.35533905932732068 -20.41241452319322744 57.7350269189624896
v 0 0 0
v 32.468587713379236 -52.90391023624614064 4.71404520791027256
v 0 0 0
v 35.35533905932730648 -61.23724356957940528 1.3747336602421E-14
v 0 0 0
v 32.468587713379236 -52.90391023624614064 4.71404520791027256
v 5.77350269189624752 -6.6666666666666652 4.71404520791030904
v 5.77350269189624752 -6.6666666666666652 4.71404520791030904
v 35.3553390593273278 -51.2372435695794124 -1.3394840792102513E-14
v 32.468587713379236 -52.90391023624614064 4.71404520791027256
v 35.3553390593273278 -51.2372435695794124 -1.3394840792102513E-14
v 5.77350269189624752 -6.6666666666666652 4.71404520791030904
v 8.6602540378443784 -4.99999999999999904 -2.6657495655335595E-15
v 38.24209040527549776 -22.07908118985981716 15.61226803171821232
v 35.3553390593273278 -51.2372435695794124 -1.3394840792102513E-14
v 38.24209040527545512 -52.90391023624614768 4.71404520791028416
v 35.3553390593273278 -51.2372435695794124 -1.3394840792102513E-14
v 38.24209040527549776 -22.07908118985981716 15.61226803171821232
v 35.35533905932741304 -20.41241452319316 10.89822282380789168
v 35.3553390593273278 -51.2372435695794124 -1.3394840792102513E-14
v 32.46858771337924312 -22.07908118985981716 15.61226803171822656
v 32.468587713379236 -52.90391023624614064 4.71404520791027256
v 32.46858771337924312 -22.07908118985981716 15.61226803171822656
v 35.3553390593273278 -51.2372435695794124 -1.3394840792102513E-14
v 35.35533905932741304 -20.41241452319316 10.89822282380789168
v 5.77350269189624752 -6.6666666666666652 4.71404520791030904
v 35.35533905932741304 -20.41241452319316 10.89822282380789168
v 8.6602540378443784 -4.99999999999999904 -2.6657495655335595E-15
v 35.35533905932741304 -20.41241452319316 10.89822282380789168
v 5.77350269189624752 -6.6666666666666652 4.71404520791030904
v 32.46858771337924312 -22.07908118985981716 15.61226803171822656
v 32.46858771337924312 -22.07908118985981716 15.61226803171822656
v 38.24209040527545512 -52.90391023624614768 4.71404520791028416
v 32.468587713379236 -52.90391023624614064 4.71404520791027256
v 38.24209040527545512 -52.90391023624614768 4.71404520791028416
v 32.46858771337924312 -22.07908118985981716 15.61226803171822656
v 38.24209040527549776 -22.07908118985981716 15.61226803171821232
v 8.66025403784438376 -1.66666666666667184 4.71404520791030816
v 32.46858771337924312 -22.07908118985981716 15.61226803171822656
v 5.77350269189624752 -6.6666666666666652 4.71404520791030904
v 32.46858771337924312 -22.07908118985981716 15.61226803171822656
v 8.66025403784438376 -1.66666666666667184 4.71404520791030816
v 35.35533905932734912 -17.07908118985983492 15.6122680317181892
v 35.35533905932737044 -17.07908118985988466 48.30693650314187692
v 32.46858771337924312 -22.07908118985981716 15.61226803171822656
v 32.46858771337925728 -22.07908118985986334 48.30693650314186272
v 32.46858771337924312 -22.07908118985981716 15.61226803171822656
v 35.35533905932737044 -17.07908118985988466 48.30693650314187692
v 35.35533905932734912 -17.07908118985983492 15.6122680317181892
v 38.24209040527548352 -22.07908118985983847 48.30693650314188404
v 32.46858771337924312 -22.07908118985981716 15.61226803171822656
v 38.24209040527549776 -22.07908118985981716 15.61226803171821232
v 32.46858771337924312 -22.07908118985981716 15.61226803171822656
v 38.24209040527548352 -22.07908118985983847 48.30693650314188404
v 32.46858771337925728 -22.07908118985986334 48.30693650314186272
v 35.35533905932741304 -20.41241452319316 10.89822282380789168
v 8.66025403784438376 -1.66666666666667184 4.71404520791030816
v 8.6602540378443784 -4.99999999999999904 -2.6657495655335595E-15
v 8.66025403784438376 -1.66666666666667184 4.71404520791030816
v 35.35533905932741304 -20.41241452319316 10.89822282380789168
v 35.35533905932734912 -17.07908118985983492 15.6122680317181892
v 35.35533905932741304 -20.41241452319316 10.89822282380789168
v 64.93717542675840096 -6.66666666666664656 4.71404520791031704
v 62.05042408081033045 -5.00000000000000532 -1.438623525862326E-14
v 64.93717542675840096 -6.66666666666664656 4.71404520791031704
v 35.35533905932741304 -20.41241452319316 10.89822282380789168
v 38.24209040527549776 -22.07908118985981716 15.61226803171821232
v 62.05042408081035887 -1.66666666666669536 4.71404520791028144
v 35.35533905932741304 -20.41241452319316 10.89822282380789168
v 62.05042408081033045 -5.00000000000000532 -1.438623525862326E-14
v 35.35533905932741304 -20.41241452319316 10.89822282380789168
v 62.05042408081035887 -1.66666666666669536 4.71404520791028144
v 35.35533905932734912 -17.07908118985983492 15.6122680317181892
v 38.24209040527549776 -22.07908118985981716 15.61226803171821232
v 35.35533905932737044 -17.07908118985988466 48.30693650314187692
v 38.24209040527548352 -22.07908118985983847 48.30693650314188404
v 35.35533905932737044 -17.07908118985988466 48.30693650314187692
v 38.24209040527549776 -22.07908118985981716 15.61226803171821232
v 35.35533905932734912 -17.07908118985983492 15.6122680317181892
v 62.05042408081035887 -1.66666666666669536 4.71404520791028144
v 38.24209040527549776 -22.07908118985981716 15.61226803171821232
v 35.35533905932734912 -17.07908118985983492 15.6122680317181892
v 38.24209040527549776 -22.07908118985981716 15.61226803171821232
v 62.05042408081035887 -1.66666666666669536 4.71404520791028144
v 64.93717542675840096 -6.66666666666664656 4.71404520791031704
v 70.71067811865475504 -2.116540930146172E-14 -2.993240888730488E-14
v 38.24209040527545512 -52.90391023624614768 4.71404520791028416
v 35.35533905932730648 -61.23724356957940528 1.3747336602421E-14
v 38.24209040527545512 -52.90391023624614768 4.71404520791028416
v 70.71067811865475504 -2.116540930146172E-14 -2.993240888730488E-14
v 64.93717542675840096 -6.66666666666664656 4.71404520791031704
v 38.24209040527545512 -52.90391023624614768 4.71404520791028416
v 35.35533905932732068 -20.41241452319322744 57.7350269189624896
v 35.35533905932730648 -61.23724356957940528 1.3747336602421E-14
v 35.35533905932732068 -20.41241452319322744 57.7350269189624896
v 38.24209040527545512 -52.90391023624614768 4.71404520791028416
v 38.24209040527548352 -22.07908118985983847 48.30693650314188404
v 35.35533905932732068 -20.41241452319322744 57.7350269189624896
v 38.24209040527548352 -22.07908118985983847 48.30693650314188404
v 64.93717542675840096 -6.66666666666664656 4.71404520791031704
v 35.35533905932732068 -20.41241452319322744 57.7350269189624896
v 64.93717542675840096 -6.66666666666664656 4.71404520791031704
v 70.71067811865475504 -2.116540930146172E-14 -2.993240888730488E-14
# 180 vertices

vn 2.1510571102112418E-16 1.117161918529064E-15 -1
vn 2.1510571102112418E-16 1.117161918529064E-15 -1
vn 2.1510571102112418E-16 1.117161918529064E-15 -1
vn 2.1510571102112418E-16 1.117161918529064E-15 -1
vn 2.1510571102112418E-16 1.117161918529064E-15 -1
vn 2.1510571102112418E-16 1.117161918529064E-15 -1
vn -2.1510571102112413E-16 0.94280904158206352 0.33333333333333316
vn -2.1510571102112413E-16 0.94280904158206352 0.33333333333333316
vn -2.1510571102112413E-16 0.94280904158206352 0.33333333333333316
vn -2.1510571102112413E-16 0.94280904158206352 0.33333333333333316
vn -2.1510571102112413E-16 0.94280904158206352 0.33333333333333316
vn -2.1510571102112413E-16 0.94280904158206352 0.33333333333333316
vn 0.70710678118654776 -0.40824829046386248 -0.57735026918962592
vn 0.70710678118654776 -0.40824829046386248 -0.57735026918962592
vn 4.6215823441725135E-17 0.81649658092772608 -0.5773502691896256
vn 4.6215823441725135E-17 0.81649658092772608 -0.5773502691896256
vn 0 0.8164965809277264 -0.57735026918962528
vn 0 0.8164965809277264 -0.57735026918962528
vn -0.70710678118654736 0.40824829046386296 0.57735026918962592
vn -0.70710678118654736 0.40824829046386296 0.57735026918962592
vn -0.70710678118654744 -0.40824829046386264 -0.57735026918962616
vn -0.70710678118654744 -0.40824829046386264 -0.57735026918962616
vn -0.8164965809277256 -0.4714045207910328 0.3333333333333332
vn -0.8164965809277256 -0.4714045207910328 0.3333333333333332
vn -0.8164965809277256 -0.4714045207910328 0.3333333333333332
vn -0.8164965809277256 -0.4714045207910328 0.3333333333333332
vn -0.8164965809277256 -0.4714045207910328 0.3333333333333332
vn -0.8164965809277256 -0.4714045207910328 0.3333333333333332
vn -0.70710678118654768 -0.40824829046386296 -0.57735026918962584
vn -0.70710678118654768 -0.40824829046386296 -0.57735026918962584
vn -0.86602540378443888 -0.1666666666666666 0.47140452079103128
vn -0.86602540378443888 -0.1666666666666666 0.47140452079103128
vn 0.86602540378443888 -0.16666666666666876 0.47140452079103104
vn 0.86602540378443888 -0.16666666666666876 0.47140452079103104
vn 0.28867513459481332 0.83333333333333408 0.47140452079103008
vn 0.28867513459481332 0.83333333333333408 0.47140452079103008
vn 7.424616477180734E-16 0.3333333333333356 -0.94280904158206256
vn 7.424616477180734E-16 0.3333333333333356 -0.94280904158206256
vn 0.28867513459481224 -0.16666666666666432 -0.94280904158206416
vn 0.28867513459481224 -0.16666666666666432 -0.94280904158206416
vn -0.86602540378444 0.49999999999999792 -9.367506770274758E-16
vn -0.86602540378444 0.49999999999999792 -9.367506770274758E-16
vn -2.185751579730777E-16 -1 5.134781488891348E-16
vn -2.185751579730777E-16 -1 5.134781488891348E-16
vn -0.57735026918962592 -0.66666666666666632 0.47140452079103232
vn -0.57735026918962592 -0.66666666666666632 0.47140452079103232
vn -0.28867513459481396 0.83333333333333408 0.47140452079102984
vn -0.28867513459481396 0.83333333333333408 0.47140452079102984
vn 0.57735026918962616 -0.66666666666666504 0.47140452079103376
vn 0.57735026918962616 -0.66666666666666504 0.47140452079103376
vn 0.86602540378443808 0.50000000000000096 1.97758476261356E-16
vn 0.86602540378443808 0.50000000000000096 1.97758476261356E-16
vn -0.28867513459481188 -0.1666666666666679 -0.94280904158206352
vn -0.28867513459481188 -0.1666666666666679 -0.94280904158206352
vn 0.8164965809277256 -0.47140452079103248 0.33333333333333352
vn 0.8164965809277256 -0.47140452079103248 0.33333333333333352
vn 0.8164965809277256 -0.47140452079103248 0.33333333333333352
vn 0.8164965809277256 -0.47140452079103248 0.33333333333333352
vn 0.8164965809277256 -0.47140452079103248 0.33333333333333352
vn 0.8164965809277256 -0.47140452079103248 0.33333333333333352
# 60 vertex normals

g PENTACHORESTL
s 1
f 1//1 2//1 3//1
f 4//2 5//2 6//2
f 7//3 8//3 9//3
f 10//4 11//4 12//4
f 13//5 14//5 15//5
f 16//6 17//6 18//6
f 19//7 20//7 21//7
f 22//8 23//8 24//8
f 25//9 26//9 27//9
f 28//10 29//10 30//10
f 31//11 32//11 33//11
f 34//12 35//12 36//12
f 37//13 38//13 39//13
f 40//14 41//14 42//14
f 43//15 44//15 45//15
f 46//16 47//16 48//16
f 49//17 50//17 51//17
f 52//18 53//18 54//18
f 55//19 56//19 57//19
f 58//20 59//20 60//20
f 61//21 62//21 63//21
f 64//22 65//22 66//22
f 67//23 68//23 69//23
f 70//24 71//24 72//24
f 73//25 74//25 75//25
f 76//26 77//26 78//26
f 79//27 80//27 81//27
f 82//28 83//28 84//28
f 85//29 86//29 87//29
f 88//30 89//30 90//30
f 91//31 92//31 93//31
f 94//32 95//32 96//32
f 97//33 98//33 99//33
f 100//34 101//34 102//34
f 103//35 104//35 105//35
f 106//36 107//36 108//36
f 109//37 110//37 111//37
f 112//38 113//38 114//38
f 115//39 116//39 117//39
f 118//40 119//40 120//40
f 121//41 122//41 123//41
f 124//42 125//42 126//42
f 127//43 128//43 129//43
f 130//44 131//44 132//44
f 133//45 134//45 135//45
f 136//46 137//46 138//46
f 139//47 140//47 141//47
f 142//48 143//48 144//48
f 145//49 146//49 147//49
f 148//50 149//50 150//50
f 151//51 152//51 153//51
f 154//52 155//52 156//52
f 157//53 158//53 159//53
f 160//54 161//54 162//54
f 163//55 164//55 165//55
f 166//56 167//56 168//56
f 169//57 170//57 171//57
f 172//58 173//58 174//58
f 175//59 176//59 177//59
f 178//60 179//60 180//60
#60 polygons

